<svg xmlns="http://www.w3.org/2000/svg" viewBox="0 0 341.37 73.7"><defs><style>.a{fill:#ff9632;}.b{fill:#000;}</style></defs><path class="a" d="M115.23,78.64a36.11,36.11,0,1,1,36.11-36.11,36.11,36.11,0,0,1-36.11,36.11m-36.85-73v73.7h73.7V5.68Z" transform="translate(-6.15 -5.68)"/><path class="a" d="M42.27,6.42A36.11,36.11,0,1,0,78.38,42.53,36.12,36.12,0,0,0,42.27,6.42" transform="translate(-6.15 -5.68)"/><path class="b" d="M182.86,20.08c-.17-.43-.41-1.15-.71-2.18-.26,1-.47,1.71-.64,2.18l-3.43,8.82h8.18Zm10.91,16.59V38h-6.61V36.67a.5.5,0,0,1,.44-.52l1.32-.38-1.8-4.62h-9.91l-1.8,4.62,1.32.38a.49.49,0,0,1,.42.52V38h-6.58V36.67a.49.49,0,0,1,.42-.52l1.28-.38L180.61,15h3.15l8.3,20.79,1.29.38a.51.51,0,0,1,.42.52" transform="translate(-6.15 -5.68)"/><path class="b" d="M211.24,38h-3a1.38,1.38,0,0,1-1.09-.58l-5.33-6.67a1.16,1.16,0,0,0-.48-.42,2.35,2.35,0,0,0-.74-.09h-.77v5.42l1.13.22.67.13a.57.57,0,0,1,.51.61V38h-7.51V36.57a.56.56,0,0,1,.49-.61l1.82-.35v-19a18.11,18.11,0,0,1-1.82-.39.53.53,0,0,1-.49-.57V14.31h5.2V28.2h.71a1.21,1.21,0,0,0,1-.45l3.66-3.91-.38-.07-.52-.1a.56.56,0,0,1-.51-.61V21.72h6.8v1.34a.52.52,0,0,1-.41.58l-2,.39-3.79,4a4,4,0,0,1-.93.87c.43.27.48.39,1,1l4.49,5.71.84.13c.56.09,1,.19,1,.19a.54.54,0,0,1,.48.58Z" transform="translate(-6.15 -5.68)"/><path class="b" d="M219.11,30.86a10.93,10.93,0,0,0-2.25.67,3.12,3.12,0,0,0-1.28,1,2.13,2.13,0,0,0-.39,1.22,3,3,0,0,0,.23,1.09,1.79,1.79,0,0,0,.58.77,2.39,2.39,0,0,0,.83.41,3.64,3.64,0,0,0,1.06.16,5.91,5.91,0,0,0,1.35-.16,6.08,6.08,0,0,0,1.18-.41,5,5,0,0,0,1.06-.71,10.55,10.55,0,0,0,1-.9V30.64a19.71,19.71,0,0,0-3.33.22m8.24,5.65v1.38H224c-.65,0-.91-.23-1-.65l-.32-1.53-1.28,1a5.18,5.18,0,0,1-1.28.77,7.48,7.48,0,0,1-1.42.49,7.75,7.75,0,0,1-1.73.16,5.28,5.28,0,0,1-1.73-.29,4.19,4.19,0,0,1-1.44-.77,4.07,4.07,0,0,1-1-1.35,4.54,4.54,0,0,1-.35-1.92A3.52,3.52,0,0,1,213,32a4.93,4.93,0,0,1,1.74-1.6,11.31,11.31,0,0,1,3.08-1.16,22.43,22.43,0,0,1,4.68-.41V27.56a4.41,4.41,0,0,0-.83-2.89,3,3,0,0,0-2.41-1,4.93,4.93,0,0,0-1.77.29,6.92,6.92,0,0,0-1.21.58c-.13.09-.28.18-.44.27l-.5.31a1.22,1.22,0,0,1-.73.25.89.89,0,0,1-.52-.12,1.76,1.76,0,0,1-.32-.39l-.51-.9A9.48,9.48,0,0,1,216.16,22a8.58,8.58,0,0,1,3.46-.64,5.91,5.91,0,0,1,2.44.45A4.94,4.94,0,0,1,224.92,25a8.11,8.11,0,0,1,.35,2.5v8.12a10.92,10.92,0,0,1,1.47.36C226.86,36,227.35,36.17,227.35,36.51Z" transform="translate(-6.15 -5.68)"/><path class="b" d="M240.47,33.4V25.57a4.46,4.46,0,0,0-3.75-1.93,4.22,4.22,0,0,0-3.57,1.61,7.55,7.55,0,0,0-1.21,4.62q0,4.59,2.37,5.64a5.44,5.44,0,0,0,1.8.36,5.32,5.32,0,0,0,4.36-2.47m0-10.08V16.65l-2.15-.39a.53.53,0,0,1-.48-.57V14.27h5.45V35.58c1.07.19,1.69.32,1.86.38a.53.53,0,0,1,.45.58V38h-4a.76.76,0,0,1-.77-.61l-.25-2a6.87,6.87,0,0,1-5.46,2.76A5.36,5.36,0,0,1,230.65,36,10.07,10.07,0,0,1,229,29.87a9.24,9.24,0,0,1,1.9-6A6.27,6.27,0,0,1,236,21.4a5.71,5.71,0,0,1,4.43,1.92" transform="translate(-6.15 -5.68)"/><path class="b" d="M251.66,24.73a5.89,5.89,0,0,0-1.47,3.34H259a5.15,5.15,0,0,0-.29-1.8,4.12,4.12,0,0,0-.77-1.44,4,4,0,0,0-1.31-.93,5.61,5.61,0,0,0-1.74-.35,4.11,4.11,0,0,0-3.24,1.18m5.84-2.79a5.42,5.42,0,0,1,2.12,1.38A6.67,6.67,0,0,1,261,25.6a9.18,9.18,0,0,1,.52,3.08,1.91,1.91,0,0,1-.13.9.67.67,0,0,1-.58.22H250.06a8.75,8.75,0,0,0,.38,2.7,5.26,5.26,0,0,0,1.1,1.86,4.11,4.11,0,0,0,1.6,1.15,5.42,5.42,0,0,0,2.05.39,6.26,6.26,0,0,0,1.86-.23,12.66,12.66,0,0,0,1.35-.54c.47-.24.79-.41,1-.52a1.41,1.41,0,0,1,.65-.25.6.6,0,0,1,.54.29l.8,1.06a4.93,4.93,0,0,1-1.28,1.09,7.73,7.73,0,0,1-1.57.8,12.73,12.73,0,0,1-1.73.45,11.73,11.73,0,0,1-1.77.16,8.19,8.19,0,0,1-3.11-.58,6.81,6.81,0,0,1-2.47-1.7,7.25,7.25,0,0,1-1.61-2.73,11.27,11.27,0,0,1-.57-3.72,9,9,0,0,1,.54-3.14,7.76,7.76,0,0,1,1.51-2.57,6.84,6.84,0,0,1,2.41-1.7,7.78,7.78,0,0,1,3.14-.61,7.34,7.34,0,0,1,2.66.48" transform="translate(-6.15 -5.68)"/><path class="b" d="M273.24,21.46a3.89,3.89,0,0,1,2.7.93,5.35,5.35,0,0,1,1.47,2.47,5.08,5.08,0,0,1,2.12-2.56,5.72,5.72,0,0,1,2.82-.84,7,7,0,0,1,2.51.42,4.25,4.25,0,0,1,1.73,1.18A6.69,6.69,0,0,1,288,27.62v8a15.63,15.63,0,0,1,1.86.39.53.53,0,0,1,.48.57V38h-5.16V27.65a4.24,4.24,0,0,0-.84-2.89,3.13,3.13,0,0,0-2.44-1,3.29,3.29,0,0,0-2.43,1,3.9,3.9,0,0,0-1.06,2.89v8l.54.13,1.29.26a.53.53,0,0,1,.48.57V38h-5.17V27.62c0-2.57-1-3.85-3.08-3.85a4.62,4.62,0,0,0-3.62,2.12v9.75l.86.16,1,.19a.56.56,0,0,1,.48.61V38h-7.48V36.6a.55.55,0,0,1,.45-.61l1.86-.35V24.06a15.63,15.63,0,0,1-1.86-.39.54.54,0,0,1-.45-.61V21.72h4a.69.69,0,0,1,.77.58c.07.48.22,1.66.22,1.66v0a5.89,5.89,0,0,1,4.59-2.54" transform="translate(-6.15 -5.68)"/><path class="b" d="M299.7,36.17a.64.64,0,0,1,.13.4V38h-7.48V36.57a.71.71,0,0,1,.13-.4.5.5,0,0,1,.35-.21l1.87-.35V24l-1.87-.36a.52.52,0,0,1-.35-.2.71.71,0,0,1-.13-.41V21.72h5.17V35.61l1.83.35a.5.5,0,0,1,.35.21" transform="translate(-6.15 -5.68)"/><path class="b" d="M318.48,38h-3a1.4,1.4,0,0,1-1.09-.58l-5.32-6.67a1.12,1.12,0,0,0-.49-.42,2.28,2.28,0,0,0-.73-.09h-.77v5.42l1.79.35a.57.57,0,0,1,.52.61V38h-7.51V36.57a.56.56,0,0,1,.48-.61l1.83-.35v-19a17.9,17.9,0,0,1-1.83-.39.53.53,0,0,1-.48-.57V14.31h5.2V28.2h.7a1.24,1.24,0,0,0,1-.45l3.66-3.91-.9-.17a.56.56,0,0,1-.51-.61V21.72h6.8v1.34a.51.51,0,0,1-.42.58l-2,.39-3.78,4a4.21,4.21,0,0,1-.94.87,3.51,3.51,0,0,1,1,1l4.49,5.71,1.89.34a.51.51,0,0,1,.42.5Z" transform="translate(-6.15 -5.68)"/><path class="b" d="M323.59,24.73a5.9,5.9,0,0,0-1.48,3.34h8.82a5.15,5.15,0,0,0-.29-1.8,4.12,4.12,0,0,0-.77-1.44,4,4,0,0,0-1.31-.93,5.33,5.33,0,0,0-1.73-.35,4.13,4.13,0,0,0-3.24,1.18m5.84-2.79a5.39,5.39,0,0,1,2.11,1.38A6.52,6.52,0,0,1,333,25.6a8.93,8.93,0,0,1,.52,3.08,1.91,1.91,0,0,1-.13.9.67.67,0,0,1-.58.22H322a8.45,8.45,0,0,0,.39,2.7,5.08,5.08,0,0,0,1.09,1.86,4.11,4.11,0,0,0,1.6,1.15,5.43,5.43,0,0,0,2.06.39,6.26,6.26,0,0,0,1.86-.23,12.51,12.51,0,0,0,1.34-.54c.47-.24.8-.41,1-.52a1.35,1.35,0,0,1,.64-.25.6.6,0,0,1,.54.29l.81,1.06A5,5,0,0,1,332,36.8a7.48,7.48,0,0,1-1.57.8,12.73,12.73,0,0,1-1.73.45,11.61,11.61,0,0,1-1.77.16,8.19,8.19,0,0,1-3.11-.58,6.81,6.81,0,0,1-2.47-1.7,7.23,7.23,0,0,1-1.6-2.73,11,11,0,0,1-.58-3.72,8.83,8.83,0,0,1,.55-3.14,7.58,7.58,0,0,1,1.5-2.57,7,7,0,0,1,2.41-1.7,7.78,7.78,0,0,1,3.14-.61,7.44,7.44,0,0,1,2.67.48" transform="translate(-6.15 -5.68)"/><path class="b" d="M345.31,21.4a4.25,4.25,0,0,1,2.21.57l-.35,2.15q-.09.42-.42.42a3.12,3.12,0,0,1-.77-.16,4.56,4.56,0,0,0-1.31-.16q-2.82,0-4.17,3.4v8l1.83.35a.56.56,0,0,1,.48.61V38h-7.48V36.6a.56.56,0,0,1,.48-.61l1.83-.35V24.06q-1.53-.28-1.83-.39a.54.54,0,0,1-.48-.6V21.72h3.92c.4,0,.83.1.89.72,0,0,.2,2.58.2,2.58h0c1.2-2.41,2.84-3.62,4.94-3.62" transform="translate(-6.15 -5.68)"/><path class="b" d="M183.61,50.76a5.79,5.79,0,0,0-4.07-1.22h-3.28V59h3.28a5.78,5.78,0,0,0,4-1.28,5,5,0,0,0,.06-6.93m2.28,8.66a9.5,9.5,0,0,1-6.35,2h-3.28v6.26c.18.06.8.19,1.87.38a.55.55,0,0,1,.44.61v1.35h-7.7V68.72a.56.56,0,0,1,.49-.61l1.82-.35V49.44c-1-.19-1.63-.32-1.82-.38a.56.56,0,0,1-.49-.61V47.1h8.95a8.18,8.18,0,0,1,6.47,2.44,7.1,7.1,0,0,1,1.78,4.85A6.87,6.87,0,0,1,185.89,59.42Z" transform="translate(-6.15 -5.68)"/><path class="b" d="M193.18,56.85a5.89,5.89,0,0,0-1.47,3.34h8.82a5.39,5.39,0,0,0-.29-1.8,4.12,4.12,0,0,0-.77-1.44,4,4,0,0,0-1.31-.93,5,5,0,0,0-1.74-.35,4.1,4.1,0,0,0-3.24,1.18M199,54.06a5.42,5.42,0,0,1,2.12,1.38,6.58,6.58,0,0,1,1.41,2.28,9.18,9.18,0,0,1,.52,3.08,1.91,1.91,0,0,1-.13.9.67.67,0,0,1-.58.22H191.58a8.75,8.75,0,0,0,.38,2.7,5.26,5.26,0,0,0,1.1,1.86,4.11,4.11,0,0,0,1.6,1.15,5.42,5.42,0,0,0,2.05.39,6.26,6.26,0,0,0,1.86-.23,12.66,12.66,0,0,0,1.35-.54c.47-.24.79-.41,1-.52a1.42,1.42,0,0,1,.64-.25.61.61,0,0,1,.55.29l.8,1.06a4.93,4.93,0,0,1-1.28,1.09,7.73,7.73,0,0,1-1.57.8,12.73,12.73,0,0,1-1.73.45,11.84,11.84,0,0,1-1.77.16,8.39,8.39,0,0,1-3.11-.58,6.73,6.73,0,0,1-2.47-1.7,7.33,7.33,0,0,1-1.61-2.73,11.27,11.27,0,0,1-.57-3.72,9,9,0,0,1,.54-3.14,7.76,7.76,0,0,1,1.51-2.57,6.84,6.84,0,0,1,2.41-1.7,7.78,7.78,0,0,1,3.14-.61,7.34,7.34,0,0,1,2.66.48" transform="translate(-6.15 -5.68)"/><path class="b" d="M215.47,53.55a5,5,0,0,1,4.05,1.7,6.78,6.78,0,0,1,1.38,4.46v8c1,.19,1.63.32,1.83.38a.57.57,0,0,1,.51.61v1.38H218V59.74q0-3.91-3.4-3.91a5.91,5.91,0,0,0-4.43,2.27v9.63c.09,0,.71.13,1.86.38a.56.56,0,0,1,.48.61v1.35h-7.47V68.72a.55.55,0,0,1,.45-.61l1.86-.35V56.18a15.63,15.63,0,0,1-1.86-.39.54.54,0,0,1-.45-.61V53.84h4c.38,0,.7.1.77.57s.25,1.77.25,1.77v0a7.21,7.21,0,0,1,5.39-2.6" transform="translate(-6.15 -5.68)"/><path class="b" d="M235.8,54.45v4.17h-1.25a.5.5,0,0,1-.54-.45l-.2-2.12a11.65,11.65,0,0,0-2.5-.35h0a3.92,3.92,0,0,0-2.21.7,1.89,1.89,0,0,0-.49,2.7,4.05,4.05,0,0,0,1.86,1.12l1,.29c.17,0,.51.15,1,.32a10.8,10.8,0,0,1,2.89,1.41,3.48,3.48,0,0,1,1.32,2.83,4.7,4.7,0,0,1-1.58,3.72,6.24,6.24,0,0,1-4.29,1.51,16.54,16.54,0,0,1-5.27-.87V65.19h1.16a.45.45,0,0,1,.48.39l.19,2a7.39,7.39,0,0,0,3.31.64,3.75,3.75,0,0,0,2.5-.8,2.14,2.14,0,0,0,.83-1.63,2,2,0,0,0-.38-1.35,3.23,3.23,0,0,0-1-.77,6,6,0,0,0-1.35-.51c-1.58-.52-2.58-.86-3-1a7.22,7.22,0,0,1-1.44-.9,3.72,3.72,0,0,1-1.35-3A4.22,4.22,0,0,1,227,55a6.64,6.64,0,0,1,4.53-1.41,13.78,13.78,0,0,1,4.23.87" transform="translate(-6.15 -5.68)"/><path class="b" d="M246.61,68.29a.64.64,0,0,1,.13.4v1.38h-7.47V68.69a.7.7,0,0,1,.12-.4.52.52,0,0,1,.36-.21l1.86-.35V56.15l-1.86-.36a.54.54,0,0,1-.36-.2.73.73,0,0,1-.12-.41V53.84h5.16V67.73l1.83.35a.48.48,0,0,1,.35.21" transform="translate(-6.15 -5.68)"/><path class="b" d="M259.7,66.48A7.68,7.68,0,0,0,260.88,62a7.67,7.67,0,0,0-1.18-4.52,4.08,4.08,0,0,0-3.6-1.6,5.1,5.1,0,0,0-2.11.38,4,4,0,0,0-1.48,1.22,5.62,5.62,0,0,0-.9,1.93,11,11,0,0,0-.32,2.63,10.69,10.69,0,0,0,.32,2.56,5.62,5.62,0,0,0,.9,1.93A3.66,3.66,0,0,0,254,67.63a5.2,5.2,0,0,0,2.11.45,4.08,4.08,0,0,0,3.6-1.6m-.39-12.32a7.06,7.06,0,0,1,2.47,1.67,6.74,6.74,0,0,1,1.54,2.63,11.19,11.19,0,0,1,0,6.93A6.81,6.81,0,0,1,261.78,68a7.34,7.34,0,0,1-2.47,1.67,9.3,9.3,0,0,1-6.41,0A7.38,7.38,0,0,1,250.42,68a7.63,7.63,0,0,1-1.57-2.63,12,12,0,0,1,0-6.93,7.53,7.53,0,0,1,1.57-2.63,7.1,7.1,0,0,1,2.48-1.67,9.15,9.15,0,0,1,6.41,0" transform="translate(-6.15 -5.68)"/><path class="b" d="M275.86,53.55a5,5,0,0,1,4,1.7,6.78,6.78,0,0,1,1.38,4.46v8c1,.19,1.64.32,1.83.38a.57.57,0,0,1,.51.61v1.38h-5.19V59.74q0-3.91-3.41-3.91a5.88,5.88,0,0,0-4.42,2.27v9.63l1.86.38a.56.56,0,0,1,.48.61v1.35h-7.48V68.72a.55.55,0,0,1,.45-.61l1.86-.35V56.18c-1.1-.22-1.68-.33-1.86-.39a.56.56,0,0,1-.45-.61V53.84h4c.39,0,.71.15.77.57s.26,1.77.26,1.77v0a7.18,7.18,0,0,1,5.39-2.6" transform="translate(-6.15 -5.68)"/><circle class="b" cx="289.91" cy="10.9" r="2.06"/><circle class="b" cx="236.39" cy="43.29" r="2.06"/></svg>
